<svg width="30" id="edit-svg" height="26" viewBox="0 0 30 26" fill="none" xmlns="http://www.w3.org/2000/svg">
<g clip-path="url(#clip0)">
<path d="M20.9531 17.5137L22.6198 15.8887C22.8802 15.6348 23.3333 15.8126 23.3333 16.1782V23.5618C23.3333 24.9075 22.2135 25.9993 20.8333 25.9993H2.5C1.11979 25.9993 0 24.9075 0 23.5618V5.68679C0 4.34109 1.11979 3.24929 2.5 3.24929H16.7448C17.1146 3.24929 17.3021 3.68601 17.0417 3.945L15.375 5.57C15.2969 5.64617 15.1927 5.68679 15.0781 5.68679H2.5V23.5618H20.8333V17.7981C20.8333 17.6915 20.875 17.5899 20.9531 17.5137ZM29.1094 7.26609L15.4323 20.6012L10.724 21.1091C9.35937 21.2563 8.19792 20.1341 8.34896 18.7934L8.86979 14.2028L22.5469 0.867651C23.7396 -0.295239 25.6667 -0.295239 26.8542 0.867651L29.1042 3.0614C30.2969 4.22429 30.2969 6.10828 29.1094 7.26609V7.26609ZM23.9635 8.83523L20.9375 5.88484L11.2604 15.3251L10.8802 18.6411L14.2813 18.2704L23.9635 8.83523ZM27.3385 4.78796L25.0885 2.59421C24.875 2.38601 24.526 2.38601 24.3177 2.59421L22.7083 4.16335L25.7344 7.11375L27.3437 5.5446C27.5521 5.33132 27.5521 4.99617 27.3385 4.78796V4.78796Z" fill="#888888"/>
</g>
<defs>
<clipPath id="clip0">
<rect width="30" height="26" fill="white"/>
</clipPath>
</defs>
</svg>
