<svg width="30" height="30" viewBox="0 0 30 30" fill="none" xmlns="http://www.w3.org/2000/svg">
<path d="M12.6125 19.4875L14.375 21.25L20.625 15L14.375 8.75L12.6125 10.5125L15.8375 13.75H3.75V16.25H15.8375L12.6125 19.4875ZM23.75 3.75H6.25C5.58696 3.75 4.95107 4.01339 4.48223 4.48223C4.01339 4.95107 3.75 5.58696 3.75 6.25V11.25H6.25V6.25H23.75V23.75H6.25V18.75H3.75V23.75C3.75 24.413 4.01339 25.0489 4.48223 25.5178C4.95107 25.9866 5.58696 26.25 6.25 26.25H23.75C25.125 26.25 26.25 25.125 26.25 23.75V6.25C26.25 4.875 25.125 3.75 23.75 3.75Z" fill="#888888"/>
</svg>
