<svg width="29" height="30" viewBox="0 0 29 30" fill="none" xmlns="http://www.w3.org/2000/svg">
<g id="bx:bxs-home-circle">
<path id="Vector" d="M26.2728 15.4138L15.3978 2.91375C14.9398 2.38625 14.0602 2.38625 13.6022 2.91375L2.72722 15.4138C2.57097 15.5933 2.46838 15.8159 2.43186 16.0545C2.39534 16.2932 2.42645 16.5377 2.52144 16.7584C2.61642 16.9791 2.77121 17.1666 2.96707 17.2982C3.16292 17.4299 3.39145 17.4999 3.62501 17.5H6.04168V26.25C6.04168 26.5815 6.16898 26.8995 6.39559 27.1339C6.6222 27.3683 6.92954 27.5 7.25001 27.5H21.75C22.0705 27.5 22.3778 27.3683 22.6044 27.1339C22.831 26.8995 22.9583 26.5815 22.9583 26.25V17.5H25.375C25.609 17.501 25.8383 17.4316 26.0348 17.3002C26.2313 17.1688 26.3867 16.981 26.4818 16.7599C26.577 16.5387 26.6079 16.2937 26.5708 16.0547C26.5337 15.8156 26.4301 15.593 26.2728 15.4138ZM14.5 20C13.5386 20 12.6166 19.6049 11.9367 18.9017C11.2569 18.1984 10.875 17.2446 10.875 16.25C10.875 15.2554 11.2569 14.3016 11.9367 13.5984C12.6166 12.8951 13.5386 12.5 14.5 12.5C15.4614 12.5 16.3835 12.8951 17.0633 13.5984C17.7431 14.3016 18.125 15.2554 18.125 16.25C18.125 17.2446 17.7431 18.1984 17.0633 18.9017C16.3835 19.6049 15.4614 20 14.5 20Z" fill="#483DFF"/>
</g>
</svg>
