<svg style="margin-left: 10%; transform: scale(0.8)" id="invite-svg" width="35" height="36" viewBox="0 0 35 36" fill="none" xmlns="http://www.w3.org/2000/svg">
<path d="M21.8748 18C25.0965 18 27.7082 15.3137 27.7082 12C27.7082 8.68629 25.0965 6 21.8748 6C18.6532 6 16.0415 8.68629 16.0415 12C16.0415 15.3137 18.6532 18 21.8748 18Z" fill="#636363"/>
<path d="M21.8752 30C21.8752 30 33.5418 30 33.5418 27C33.5418 23.4 27.8543 19.5 21.8752 19.5C15.896 19.5 10.2085 23.4 10.2085 27C10.2085 30 21.8752 30 21.8752 30ZM8.75016 15V10.5H5.8335V15H1.4585V18H5.8335V22.5H8.75016V18H13.1252V15H8.75016Z" fill="#636363"/>
</svg>
