<svg id="leftlightarrow" width="18" height="18" viewBox="0 0 24 24" fill="none" xmlns="http://www.w3.org/2000/svg">
<path d="M22.4598 10.4266H5.25583L12.772 2.70841C13.3727 2.09158 13.3727 1.07936 12.772 0.46253C12.6295 0.31591 12.4602 0.199587 12.2739 0.12022C12.0876 0.0408524 11.8879 0 11.6861 0C11.4844 0 11.2847 0.0408524 11.0984 0.12022C10.912 0.199587 10.7428 0.31591 10.6003 0.46253L0.450421 10.8853C0.30764 11.0316 0.194362 11.2054 0.117073 11.3968C0.0397835 11.5881 0 11.7932 0 12.0003C0 12.2075 0.0397835 12.4126 0.117073 12.6039C0.194362 12.7952 0.30764 12.969 0.450421 13.1154L10.6003 23.5381C10.7429 23.6846 10.9122 23.8007 11.0985 23.88C11.2848 23.9592 11.4845 24 11.6861 24C11.8878 24 12.0875 23.9592 12.2738 23.88C12.4601 23.8007 12.6294 23.6846 12.772 23.5381C12.9146 23.3917 13.0277 23.2179 13.1049 23.0266C13.182 22.8352 13.2217 22.6302 13.2217 22.4231C13.2217 22.216 13.182 22.011 13.1049 21.8197C13.0277 21.6283 12.9146 21.4545 12.772 21.3081L5.25583 13.5898H22.4598C23.3069 13.5898 24 12.8781 24 12.0082C24 11.1384 23.3069 10.4266 22.4598 10.4266Z" fill="#353535"/>
</svg>
