<svg id="app-logo" width="37" height="45" viewBox="0 0 37 45" fill="none" xmlns="http://www.w3.org/2000/svg">
<path d="M31.9977 22.9579C31.1279 22.2944 30.4405 21.3023 30.03 20.1182C29.6415 18.9684 29.448 17.422 29.4496 15.4788V8.53374C29.4643 7.80527 29.3947 7.07775 29.2431 6.37482C29.1272 5.85164 28.8998 5.38001 28.5863 5.0127C28.2387 4.65145 27.8247 4.40952 27.3836 4.30977C27.2901 4.28161 27.1943 4.25663 27.0934 4.23467C26.4029 4.07434 25.7023 3.99584 25.0005 4.00017H22C22.7027 3.99671 23.4041 4.07627 24.0953 4.23786C24.1962 4.25983 24.292 4.2848 24.3855 4.31296C24.8267 4.41228 25.2399 4.65429 25.5859 5.01589C25.9008 5.38219 26.1292 5.85409 26.245 6.37801C26.3955 7.08093 26.465 7.80815 26.4515 8.53674V15.5599C26.4515 17.4719 26.4787 19.1778 26.8672 20.3431C27.2437 21.462 27.8935 22.3947 28.7192 23.0017C27.892 23.622 27.2427 24.5662 26.8672 25.6947C26.4787 26.8601 26.4515 28.5316 26.4515 30.4405V37.4604C26.465 38.19 26.3954 38.9183 26.245 39.6223C26.1286 40.1451 25.9003 40.6158 25.5859 40.9814C25.239 41.3431 24.826 41.586 24.3855 41.6874L24.0953 41.7625C23.4039 41.9226 22.7026 42.002 22 42H25.0005C25.7031 42.0021 26.4045 41.9226 27.0959 41.7625L27.3861 41.6874C27.8271 41.5853 28.2408 41.3425 28.5888 40.9814C28.9017 40.6147 29.129 40.1443 29.2454 39.6223C29.3972 38.9186 29.4668 38.1901 29.4521 37.4604V30.5156C29.4521 28.5754 29.644 27.0257 30.0325 25.8791C30.4439 24.6949 31.131 23.7021 32 23.036L31.9533 22.9985L31.9977 22.9579Z" fill="#FF005C"/>
<path d="M34.4849 19.0401C33.9458 18.1329 33.6637 17.0256 33.6835 15.8941V9.04021C33.6973 7.73166 33.5847 6.42583 33.3481 5.15131C33.1562 4.08846 32.745 3.1076 32.1558 2.30709C31.4955 1.48057 30.674 0.886087 29.7732 0.583086C29.1698 0.363928 28.5519 0.213389 27.9269 0.133291C27.2406 0.0410444 26.5509 -0.00326325 25.8607 0.000186931H0C0 0.000186931 0.914759 11.4435 6.2032 14.5443C6.65942 17.923 7.89295 22.7932 11.1973 24.7315C11.68 28.385 13.0921 33.1523 17.0433 34.5291C17.0394 34.5883 17.0394 34.6479 17.0433 34.7072C17.0433 34.7072 17.526 45 25.9741 45C26.6982 45 27.3523 44.967 27.934 44.9096C28.5198 44.861 29.1003 44.7396 29.667 44.5471C30.5876 44.2604 31.4328 43.6777 32.1194 42.8565C32.7257 42.0742 33.1504 41.0992 33.3479 40.0365C33.5875 38.7503 33.7003 37.432 33.6836 36.1112V29.2212C33.6672 28.1052 33.9493 27.0145 34.4849 26.1233C35.0191 25.2357 35.8575 24.7928 37 24.7948V20.3688C35.8559 20.3688 35.0175 19.9257 34.4849 19.0401ZM30.0509 25.3051C29.6663 26.4244 29.474 27.9007 29.474 29.7344V36.4434C29.474 38.0878 29.1884 39.195 28.6171 39.7646C28.4089 39.9661 28.1758 40.1231 27.9269 40.2295C27.4634 40.4263 26.9813 40.5462 26.493 40.5859C26.0103 40.5859 21.5883 41.2985 20.8667 34.9157H24.9699C24.8059 30.8094 22.1918 30.5708 21.8587 30.5557H20.3525C17.0819 30.5557 15.6144 27.4941 14.953 24.7285H24.6875C24.6875 22.3131 23.1477 20.266 21.6728 20.3686H15.2861C12.0662 20.3263 10.6132 17.2889 9.95658 14.5443H24.2242C24.2242 12.1288 22.8989 10.1844 20.9729 10.1844H10.128C6.85737 10.1844 5.85811 7.12282 5.19917 4.35722H25.0497C25.7465 4.35378 26.4421 4.43062 27.1278 4.58675C27.2267 4.60781 27.3234 4.63215 27.4151 4.6592C27.5859 4.70533 27.7537 4.76816 27.9172 4.84624C28.1688 4.9546 28.4027 5.11937 28.6074 5.33253C28.9178 5.68206 29.1436 6.13403 29.2591 6.63688C29.4099 7.31152 29.4791 8.01075 29.4643 8.71117V15.3806C29.4643 17.2466 29.6567 18.73 30.0412 19.8309C30.4553 20.968 31.1389 21.9171 31.9988 22.5484C31.1368 23.1905 30.4558 24.1543 30.0509 25.3051Z" fill="#2F2F2F"/>
</svg>
