<svg id="search-svg" width="29" height="29" viewBox="0 0 29 29" fill="none" xmlns="http://www.w3.org/2000/svg">
<path d="M12.0833 21.75C14.2281 21.7495 16.311 21.0316 18.0005 19.7103L23.3123 25.0222L25.0209 23.3136L19.7091 18.0017C21.031 16.3121 21.7494 14.2286 21.75 12.0833C21.75 6.75337 17.4133 2.41666 12.0833 2.41666C6.75333 2.41666 2.41663 6.75337 2.41663 12.0833C2.41663 17.4133 6.75333 21.75 12.0833 21.75ZM12.0833 4.83332C16.0817 4.83332 19.3333 8.08495 19.3333 12.0833C19.3333 16.0817 16.0817 19.3333 12.0833 19.3333C8.08492 19.3333 4.83329 16.0817 4.83329 12.0833C4.83329 8.08495 8.08492 4.83332 12.0833 4.83332Z" fill="#BABABA"/>
<path d="M13.7895 10.3748C14.2475 10.8339 14.5 11.4405 14.5 12.0833H16.9167C16.9177 11.4483 16.7929 10.8193 16.5494 10.2328C16.3059 9.64623 15.9486 9.11377 15.4981 8.66618C13.6687 6.83918 10.4968 6.83918 8.66858 8.66618L10.3747 10.3772C11.2931 9.46126 12.876 9.46368 13.7895 10.3748Z" fill="#BABABA"/>
</svg>
