<svg width="24" height="24" viewBox="0 0 27 26" fill="none" xmlns="http://www.w3.org/2000/svg">
<path d="M1.02801 0.0755485L26.6409 12.4655C26.7497 12.5182 26.8403 12.5956 26.9035 12.6896C26.9667 12.7836 27 12.8908 27 13C27 13.1092 26.9667 13.2164 26.9035 13.3104C26.8403 13.4044 26.7497 13.4818 26.6409 13.5345L1.02801 25.9245C0.922399 25.9756 0.803469 26.0016 0.682945 25.9999C0.562421 25.9983 0.444462 25.9691 0.340696 25.9151C0.236929 25.8612 0.150937 25.7844 0.091194 25.6923C0.0314512 25.6002 2.06372e-05 25.496 0 25.39V0.61C2.06372e-05 0.503982 0.0314512 0.399798 0.091194 0.307718C0.150937 0.215637 0.236929 0.138839 0.340696 0.0848918C0.444462 0.0309447 0.562421 0.00171125 0.682945 7.28728e-05C0.803469 -0.0015655 0.922399 0.0244477 1.02801 0.0755485ZM2.77466 14.2202V22.2943L21.9892 13L2.77466 3.70567V11.7798H9.71131V14.2202H2.77466Z" fill="#6C63FF"/>
</svg>
