<svg width="30" height="30" viewBox="0 0 30 30" fill="none" xmlns="http://www.w3.org/2000/svg">
<g id="ic:baseline-settings">
<path id="Vector" d="M23.9249 16.17C23.9699 15.795 23.9999 15.405 23.9999 15C23.9999 14.595 23.9699 14.205 23.9099 13.83L26.4449 11.85C26.5536 11.7589 26.6278 11.6333 26.6551 11.494C26.6824 11.3548 26.6612 11.2104 26.5949 11.085L24.1949 6.93001C24.0449 6.66001 23.7299 6.57001 23.4599 6.66001L20.4749 7.86001C19.855 7.38153 19.174 6.98804 18.4499 6.69001L17.9999 3.51001C17.9782 3.36694 17.9055 3.23653 17.7952 3.14281C17.685 3.04909 17.5446 2.99837 17.3999 3.00001H12.5999C12.4568 2.99856 12.3182 3.04969 12.2103 3.14371C12.1025 3.23773 12.0329 3.36808 12.0149 3.51001L11.5649 6.69001C10.842 6.99052 10.1613 7.38382 9.53987 7.86001L6.55487 6.66001C6.42045 6.60819 6.27178 6.607 6.13655 6.65668C6.00133 6.70635 5.88878 6.8035 5.81987 6.93001L3.41987 11.085C3.34564 11.2084 3.31989 11.355 3.34761 11.4964C3.37532 11.6377 3.45453 11.7637 3.56987 11.85L6.10487 13.83C6.04487 14.205 5.99987 14.61 5.99987 15C5.99987 15.39 6.02987 15.795 6.08987 16.17L3.55487 18.15C3.44611 18.2411 3.37189 18.3668 3.34459 18.506C3.3173 18.6452 3.33857 18.7896 3.40487 18.915L5.80487 23.07C5.95487 23.34 6.26987 23.43 6.53987 23.34L9.52487 22.14C10.1447 22.6185 10.8258 23.012 11.5499 23.31L11.9999 26.49C12.0599 26.79 12.2999 27 12.5999 27H17.3999C17.6999 27 17.9549 26.79 17.9849 26.49L18.4349 23.31C19.1578 23.0095 19.8385 22.6162 20.4599 22.14L23.4449 23.34C23.7149 23.445 24.0299 23.34 24.1799 23.07L26.5799 18.915C26.6541 18.7916 26.6798 18.645 26.6521 18.5036C26.6244 18.3623 26.5452 18.2363 26.4299 18.15L23.9249 16.17ZM14.9999 19.5C12.5249 19.5 10.4999 17.475 10.4999 15C10.4999 12.525 12.5249 10.5 14.9999 10.5C17.4749 10.5 19.4999 12.525 19.4999 15C19.4999 17.475 17.4749 19.5 14.9999 19.5Z" fill="#1070FF"/>
</g>
</svg>
