<svg width="20" id="support-svg" height="18" viewBox="0 0 20 18" fill="none" xmlns="http://www.w3.org/2000/svg">
<path id="Vector" d="M19.3475 9.47507C19.7675 8.99018 20 8.39608 20 7.77795C20 6.79724 19.3725 5.86896 18.3625 5.3513C18.1025 5.21806 17.8064 5.14793 17.505 5.14817H11.51L11.66 2.46379C11.695 1.81509 11.4325 1.19914 10.9225 0.729539C10.6722 0.498075 10.3703 0.313914 10.0353 0.188437C9.70032 0.0629592 9.33946 -0.00116858 8.975 1.61197e-05C7.675 1.61197e-05 6.525 0.764486 6.18 1.85877L4.0325 8.65163H0.8C0.3575 8.65163 0 8.96397 0 9.35057V17.3011C0 17.6877 0.3575 18 0.8 18H15.8325C16.0625 18 16.2875 17.9607 16.495 17.8821C17.685 17.4387 18.4525 16.423 18.4525 15.296C18.4525 15.0208 18.4075 14.7499 18.3175 14.4878C18.7375 14.0029 18.97 13.4088 18.97 12.7907C18.97 12.5155 18.925 12.2446 18.835 11.9825C19.255 11.4976 19.4875 10.9035 19.4875 10.2854C19.4825 10.0102 19.4375 9.73718 19.3475 9.47507V9.47507ZM1.8 16.4274V10.2243H3.825V16.4274H1.8ZM17.71 8.71715L17.1625 9.13215L17.51 9.68694C17.6245 9.86969 17.6838 10.0749 17.6825 10.2832C17.6825 10.6436 17.5025 10.9865 17.1925 11.2224L16.645 11.6374L16.9925 12.1922C17.107 12.375 17.1663 12.5802 17.165 12.7885C17.165 13.1489 16.985 13.4918 16.675 13.7277L16.1275 14.1427L16.475 14.6975C16.5895 14.8802 16.6488 15.0854 16.6475 15.2938C16.6475 15.783 16.3175 16.2242 15.8075 16.4252H5.425V10.1544L7.9125 2.28032C7.97664 2.0785 8.11433 1.90045 8.30471 1.77314C8.49508 1.64583 8.72777 1.57621 8.9675 1.57482C9.1575 1.57482 9.345 1.62288 9.495 1.72116C9.7425 1.8828 9.875 2.12743 9.86 2.38735L9.62 6.7208H17.48C17.925 6.95887 18.2 7.36077 18.2 7.77795C18.2 8.13834 18.02 8.47908 17.71 8.71715Z" fill="#6C63FF"/>
</svg>
