<svg width="45" height="45" viewBox="0 0 45 45" fill="none" xmlns="http://www.w3.org/2000/svg">
<circle cx="22.5" cy="22.5" r="22.5" fill="#428EFF"/>
<path d="M22.9759 10.8698C22.4996 10.2958 21.4996 10.2958 21.0234 10.8698L11.0234 22.9531C10.8767 23.131 10.7848 23.3453 10.7584 23.5713C10.732 23.7974 10.772 24.026 10.874 24.2311C10.9759 24.4361 11.1356 24.6092 11.3347 24.7305C11.5338 24.8517 11.7643 24.9163 11.9996 24.9167H16.9996V33.375C16.9996 33.6955 17.1313 34.0028 17.3657 34.2294C17.6001 34.456 17.9181 34.5833 18.2496 34.5833H25.7496C26.0811 34.5833 26.3991 34.456 26.6335 34.2294C26.8679 34.0028 26.9996 33.6955 26.9996 33.375V24.9167H31.9996C32.2349 24.9163 32.4654 24.8517 32.6645 24.7305C32.8636 24.6092 33.0233 24.4361 33.1252 24.2311C33.2272 24.026 33.2672 23.7974 33.2408 23.5713C33.2144 23.3453 33.1226 23.131 32.9759 22.9531L22.9759 10.8698ZM25.7496 22.5H24.4996V32.1667H19.4996V22.5H14.6009L21.9996 13.5595L29.3984 22.5H25.7496Z" fill="white"/>
</svg>
