<svg width="20" height="21" viewBox="0 0 20 21" fill="none" xmlns="http://www.w3.org/2000/svg">
<path d="M19 7.99913C19.2652 7.99913 19.5196 7.89378 19.7071 7.70624C19.8946 7.5187 20 7.26435 20 6.99913V3.99913C20 3.7893 19.9339 3.5848 19.8111 3.41464C19.6884 3.24448 19.5151 3.1173 19.316 3.05113L10.316 0.051133C10.1108 -0.0170443 9.88915 -0.0170443 9.684 0.051133L0.684 3.05113C0.484874 3.1173 0.311636 3.24448 0.188861 3.41464C0.0660862 3.5848 7.9761e-06 3.7893 0 3.99913V6.99913C0 7.26435 0.105357 7.5187 0.292893 7.70624C0.48043 7.89378 0.734784 7.99913 1 7.99913H2V15.1831C1.41669 15.3886 0.91128 15.7696 0.553177 16.2738C0.195074 16.778 0.00183653 17.3807 0 17.9991V19.9991C0 20.2643 0.105357 20.5187 0.292893 20.7062C0.48043 20.8938 0.734784 20.9991 1 20.9991H19C19.2652 20.9991 19.5196 20.8938 19.7071 20.7062C19.8946 20.5187 20 20.2643 20 19.9991V17.9991C19.9982 17.3807 19.8049 16.778 19.4468 16.2738C19.0887 15.7696 18.5833 15.3886 18 15.1831V7.99913H19ZM18 18.9991H2V17.9991C2.00026 17.734 2.10571 17.4798 2.29319 17.2923C2.48066 17.1048 2.73486 16.9994 3 16.9991H17C17.2651 16.9994 17.5193 17.1048 17.7068 17.2923C17.8943 17.4798 17.9997 17.734 18 17.9991V18.9991ZM4 14.9991V7.99913H6V14.9991H4ZM8 14.9991V7.99913H12V14.9991H8ZM14 14.9991V7.99913H16V14.9991H14ZM2 5.99913V4.71913L10 2.05313L18 4.72013V5.99913H2Z" fill="#6C63FF"/>
</svg>
