<svg width="27" height="25" viewBox="0 0 27 25" fill="none" xmlns="http://www.w3.org/2000/svg">
<path d="M14.3783 2.47396C13.9497 1.97917 13.0497 1.97917 12.6211 2.47396L3.62107 12.8906C3.48904 13.044 3.40639 13.2287 3.38261 13.4236C3.35883 13.6184 3.39488 13.8156 3.48663 13.9923C3.57838 14.1691 3.7221 14.3183 3.9013 14.4228C4.08049 14.5274 4.2879 14.583 4.4997 14.5833H8.9997V21.875C8.9997 22.1513 9.11823 22.4162 9.3292 22.6116C9.54018 22.8069 9.82633 22.9167 10.1247 22.9167H16.8747C17.1731 22.9167 17.4592 22.8069 17.6702 22.6116C17.8812 22.4162 17.9997 22.1513 17.9997 21.875V14.5833H22.4997C22.7115 14.583 22.9189 14.5274 23.0981 14.4228C23.2773 14.3183 23.421 14.1691 23.5128 13.9923C23.6045 13.8156 23.6406 13.6184 23.6168 13.4236C23.593 13.2287 23.5104 13.044 23.3783 12.8906L14.3783 2.47396ZM16.8747 12.5H15.7497V20.8333H11.2497V12.5H6.84082L13.4997 4.79271L20.1586 12.5H16.8747Z" fill="#428EFF"/>
</svg>
