<svg width="20" height="20" viewBox="0 0 20 20" fill="none" xmlns="http://www.w3.org/2000/svg">
<path d="M16 6H8V4H16V6ZM20 2V10L14 16H6C5.46957 16 4.96086 15.7893 4.58579 15.4142C4.21071 15.0391 4 14.5304 4 14V2C4 1.46957 4.21071 0.960859 4.58579 0.585786C4.96086 0.210714 5.46957 0 6 0H18C18.5304 0 19.0391 0.210714 19.4142 0.585786C19.7893 0.960859 20 1.46957 20 2ZM18 2H6V14H12V10C12 9.46957 12.2107 8.96086 12.5858 8.58579C12.9609 8.21071 13.4696 8 14 8H18V2ZM2 4C1.46957 4 0.960859 4.21071 0.585786 4.58579C0.210714 4.96086 0 5.46957 0 6V18C0 19.1 0.9 20 2 20H14C14.5304 20 15.0391 19.7893 15.4142 19.4142C15.7893 19.0391 16 18.5304 16 18H2V4Z" fill="#4438FF"/>
</svg>
